{
  "accessors": [
    {
      "bufferView": 2,
      "componentType": 5126,
      "count": 37503,
      "max": [
        72.06716918945313,
        22.497697830200195,
        17.679019927978516
      ],
      "min": [
        23.83224868774414,
        -27.510881423950195,
        -108.60360717773438
      ],
      "type": "VEC3"
    },
    {
      "bufferView": 2,
      "byteOffset": 450036,
      "componentType": 5126,
      "count": 37503,
      "max": [
        0.9999961256980896,
        0.9999977350234985,
        1.0
      ],
      "min": [
        -0.9999662637710571,
        -0.9999786615371704,
        -0.9999993443489075
      ],
      "type": "VEC3"
    },
    {
      "bufferView": 3,
      "componentType": 5126,
      "count": 37503,
      "max": [
        0.9999423027038574,
        0.9999897480010986,
        0.9999929070472717,
        1.0
      ],
      "min": [
        -0.9999949336051941,
        -0.999955952167511,
        -0.9999974966049194,
        1.0
      ],
      "type": "VEC4"
    },
    {
      "bufferView": 1,
      "componentType": 5126,
      "count": 37503,
      "max": [
        0.9999989867210388,
        0.9986500144004822
      ],
      "min": [
        0.0,
        0.0
      ],
      "type": "VEC2"
    },
    {
      "bufferView": 1,
      "byteOffset": 300024,
      "componentType": 5126,
      "count": 37503,
      "max": [
        0.0,
        0.0
      ],
      "min": [
        0.0,
        0.0
      ],
      "type": "VEC2"
    },
    {
      "bufferView": 0,
      "componentType": 5125,
      "count": 51099,
      "type": "SCALAR"
    }
  ],
  "asset": {
    "extras": {
      "author": "Leon_dp (https://sketchfab.com/leondp)",
      "license": "CC-BY-4.0 (http://creativecommons.org/licenses/by/4.0/)",
      "source": "https://sketchfab.com/3d-models/ruined-round-tower-debaa8213bd544afaa52432cede8bbce",
      "title": "Ruined round tower"
    },
    "generator": "Sketchfab-12.68.0",
    "version": "2.0"
  },
  "bufferViews": [
    {
      "buffer": 0,
      "byteLength": 204396,
      "name": "floatBufferViews",
      "target": 34963
    },
    {
      "buffer": 0,
      "byteLength": 600048,
      "byteOffset": 204396,
      "byteStride": 8,
      "name": "floatBufferViews",
      "target": 34962
    },
    {
      "buffer": 0,
      "byteLength": 900072,
      "byteOffset": 804444,
      "byteStride": 12,
      "name": "floatBufferViews",
      "target": 34962
    },
    {
      "buffer": 0,
      "byteLength": 600048,
      "byteOffset": 1704516,
      "byteStride": 16,
      "name": "floatBufferViews",
      "target": 34962
    }
  ],
  "buffers": [
    {
      "byteLength": 2304564,
      "uri": "scene.bin"
    }
  ],
  "images": [
    {
      "uri": "textures/small_baseColor.jpeg"
    },
    {
      "uri": "textures/small_metallicRoughness.png"
    },
    {
      "uri": "textures/small_normal.png"
    }
  ],
  "materials": [
    {
      "doubleSided": true,
      "name": "small",
      "normalTexture": {
        "index": 2
      },
      "occlusionTexture": {
        "index": 1
      },
      "pbrMetallicRoughness": {
        "baseColorTexture": {
          "index": 0
        },
        "metallicRoughnessTexture": {
          "index": 1
        },
        "roughnessFactor": 0.777
      }
    }
  ],
  "meshes": [
    {
      "name": "defaultMaterial",
      "primitives": [
        {
          "attributes": {
            "NORMAL": 1,
            "POSITION": 0,
            "TANGENT": 2,
            "TEXCOORD_0": 3,
            "TEXCOORD_1": 4
          },
          "indices": 5,
          "material": 0,
          "mode": 4
        }
      ]
    }
  ],
  "nodes": [
    {
      "children": [
        1
      ],
      "matrix": [
        1.0,
        0.0,
        0.0,
        0.0,
        0.0,
        2.220446049250313e-16,
        -1.0,
        0.0,
        0.0,
        1.0,
        2.220446049250313e-16,
        0.0,
        0.0,
        0.0,
        0.0,
        1.0
      ],
      "name": "Sketchfab_model"
    },
    {
      "children": [
        2
      ],
      "matrix": [
        1.0,
        0.0,
        0.0,
        0.0,
        0.0,
        -4.371139006309477e-08,
        0.999999999999999,
        0.0,
        0.0,
        -0.999999999999999,
        -4.371139006309477e-08,
        0.0,
        0.0,
        0.0,
        0.0,
        1.0
      ],
      "name": "Collada visual scene group"
    },
    {
      "children": [
        3
      ],
      "matrix": [
        88.547363,
        0.0,
        -46.468975,
        0.0,
        -46.468975,
        -1.6e-05,
        -88.547363,
        0.0,
        -8e-06,
        100.0,
        -1.4e-05,
        0.0,
        4395.975586,
        11923.427734,
        -4833.908691,
        1.0
      ],
      "name": "small"
    },
    {
      "mesh": 0,
      "name": "defaultMaterial"
    }
  ],
  "samplers": [
    {
      "magFilter": 9729,
      "minFilter": 9987,
      "wrapS": 10497,
      "wrapT": 10497
    }
  ],
  "scene": 0,
  "scenes": [
    {
      "name": "Sketchfab_Scene",
      "nodes": [
        0
      ]
    }
  ],
  "textures": [
    {
      "sampler": 0,
      "source": 0
    },
    {
      "sampler": 0,
      "source": 1
    },
    {
      "sampler": 0,
      "source": 2
    }
  ]
}
